<mxfile host="Electron" agent="Mozilla/5.0 (Windows NT 10.0; Win64; x64) AppleWebKit/537.36 (KHTML, like Gecko) draw.io/26.0.4 Chrome/128.0.6613.186 Electron/32.2.5 Safari/537.36" version="26.0.4">
  <diagram name="第1頁" id="BW0eMy8xa9_CiP4wtdd5">
    <mxGraphModel dx="989" dy="577" grid="1" gridSize="10" guides="1" tooltips="1" connect="1" arrows="1" fold="1" page="1" pageScale="1" pageWidth="827" pageHeight="1169" math="0" shadow="0">
      <root>
        <mxCell id="0" />
        <mxCell id="1" parent="0" />
        <mxCell id="4s84Pme87v4ZeEJu9Q-u-3" style="edgeStyle=orthogonalEdgeStyle;rounded=0;orthogonalLoop=1;jettySize=auto;html=1;entryX=0.025;entryY=0.83;entryDx=0;entryDy=0;exitX=1;exitY=0.25;exitDx=0;exitDy=0;entryPerimeter=0;fontFamily=Times New Roman;" edge="1" parent="1" source="4s84Pme87v4ZeEJu9Q-u-1" target="4s84Pme87v4ZeEJu9Q-u-2">
          <mxGeometry relative="1" as="geometry">
            <Array as="points">
              <mxPoint x="340" y="330" />
              <mxPoint x="435" y="330" />
              <mxPoint x="435" y="362" />
            </Array>
          </mxGeometry>
        </mxCell>
        <mxCell id="4s84Pme87v4ZeEJu9Q-u-1" value="主控端" style="rounded=0;whiteSpace=wrap;html=1;fontFamily=Times New Roman;" vertex="1" parent="1">
          <mxGeometry x="250" y="320" width="90" height="50" as="geometry" />
        </mxCell>
        <mxCell id="4s84Pme87v4ZeEJu9Q-u-2" value="周邊裝置" style="rounded=0;whiteSpace=wrap;html=1;fontFamily=Times New Roman;" vertex="1" parent="1">
          <mxGeometry x="530" y="320" width="90" height="50" as="geometry" />
        </mxCell>
        <mxCell id="4s84Pme87v4ZeEJu9Q-u-4" style="edgeStyle=orthogonalEdgeStyle;rounded=0;orthogonalLoop=1;jettySize=auto;html=1;entryX=1.014;entryY=0.84;entryDx=0;entryDy=0;entryPerimeter=0;fontFamily=Times New Roman;" edge="1" parent="1" source="4s84Pme87v4ZeEJu9Q-u-2" target="4s84Pme87v4ZeEJu9Q-u-1">
          <mxGeometry relative="1" as="geometry">
            <Array as="points">
              <mxPoint x="435" y="330" />
              <mxPoint x="435" y="362" />
            </Array>
          </mxGeometry>
        </mxCell>
        <mxCell id="4s84Pme87v4ZeEJu9Q-u-5" value="傳送(TX)" style="text;html=1;align=center;verticalAlign=middle;resizable=0;points=[];autosize=1;strokeColor=none;fillColor=none;fontFamily=Times New Roman;" vertex="1" parent="1">
          <mxGeometry x="350" y="308" width="70" height="30" as="geometry" />
        </mxCell>
        <mxCell id="4s84Pme87v4ZeEJu9Q-u-6" value="接收(RX)" style="text;html=1;align=center;verticalAlign=middle;resizable=0;points=[];autosize=1;strokeColor=none;fillColor=none;fontFamily=Times New Roman;" vertex="1" parent="1">
          <mxGeometry x="450" y="340" width="70" height="30" as="geometry" />
        </mxCell>
        <mxCell id="4s84Pme87v4ZeEJu9Q-u-7" value="接收(RX)" style="text;html=1;align=center;verticalAlign=middle;resizable=0;points=[];autosize=1;strokeColor=none;fillColor=none;fontFamily=Times New Roman;" vertex="1" parent="1">
          <mxGeometry x="350" y="338" width="70" height="30" as="geometry" />
        </mxCell>
        <mxCell id="4s84Pme87v4ZeEJu9Q-u-8" value="傳送(TX)" style="text;html=1;align=center;verticalAlign=middle;resizable=0;points=[];autosize=1;strokeColor=none;fillColor=none;fontFamily=Times New Roman;" vertex="1" parent="1">
          <mxGeometry x="440" y="308" width="70" height="30" as="geometry" />
        </mxCell>
      </root>
    </mxGraphModel>
  </diagram>
</mxfile>
